<svg width="18" height="18" viewBox="0 0 18 18" fill="none" xmlns="http://www.w3.org/2000/svg">
<path d="M13 8.71875V9.70312C13 9.93516 12.775 10.125 12.5 10.125H5.5C5.225 10.125 5 9.93516 5 9.70312V8.71875C5 8.48672 5.225 8.29688 5.5 8.29688H12.5C12.775 8.29688 13 8.48672 13 8.71875ZM12.5 11.25H5.5C5.225 11.25 5 11.4398 5 11.6719V12.6562C5 12.8883 5.225 13.0781 5.5 13.0781H12.5C12.775 13.0781 13 12.8883 13 12.6562V11.6719C13 11.4398 12.775 11.25 12.5 11.25ZM17 4.63711V16.3125C17 17.2441 16.1042 18 15 18H3C1.89583 18 1 17.2441 1 16.3125V1.6875C1 0.755859 1.89583 0 3 0H11.5042C12.0333 0 12.5417 0.179297 12.9167 0.495703L16.4125 3.44531C16.7875 3.7582 17 4.19062 17 4.63711ZM11.6667 1.82461V4.5H14.8375L11.6667 1.82461ZM15 16.3125V6.1875H10.6667C10.1125 6.1875 9.66667 5.81133 9.66667 5.34375V1.6875H3V16.3125H15Z" fill="#5D4CB6"/>
</svg>
