<svg width="18" height="18" viewBox="0 0 18 18" fill="none" xmlns="http://www.w3.org/2000/svg">
<circle cx="9" cy="9" r="8" stroke="#5D4CB6" stroke-width="2"/>
<path d="M11.8223 6.95215C11.8223 7.30664 11.7686 7.62533 11.6611 7.9082C11.5573 8.1875 11.4087 8.43099 11.2153 8.63867C11.0256 8.84277 10.7964 9.02539 10.5278 9.18652C10.2629 9.34766 9.96566 9.49447 9.63623 9.62695V10.8516H7.79932V9.05225C7.99984 8.99854 8.22184 8.92513 8.46533 8.83203C8.7124 8.73893 8.92904 8.62435 9.11523 8.48828C9.31217 8.34863 9.47331 8.18571 9.59863 7.99951C9.72396 7.81331 9.78662 7.5931 9.78662 7.33887C9.78662 6.98438 9.67383 6.72656 9.44824 6.56543C9.22266 6.4043 8.90934 6.32373 8.5083 6.32373C8.20752 6.32373 7.88704 6.38997 7.54688 6.52246C7.21029 6.65495 6.94531 6.78743 6.75195 6.91992H6.59619V5.30322C6.82536 5.20296 7.16016 5.10091 7.60059 4.99707C8.04102 4.89323 8.51367 4.84131 9.01855 4.84131C9.46973 4.84131 9.86719 4.89502 10.2109 5.00244C10.5583 5.10628 10.8537 5.25309 11.0972 5.44287C11.3335 5.63265 11.5125 5.85645 11.6343 6.11426C11.7596 6.36849 11.8223 6.64779 11.8223 6.95215ZM9.78662 13H7.67041V11.582H9.78662V13Z" fill="#5D4CB6"/>
</svg>
