<svg width="22" height="19" viewBox="0 0 22 19" fill="none" xmlns="http://www.w3.org/2000/svg">
<mask id="path-1-inside-1" fill="white">
<path d="M7.79422 17.6169C8.47795 18.2595 9.53055 18.2595 10.2143 17.6261L10.3043 17.5434L10.3586 17.4931C15.0512 13.1426 18.1218 10.2959 17.9963 6.74767C17.9423 5.18706 17.1596 3.69071 15.8911 2.80942C13.516 1.14783 10.5831 1.92813 8.99975 3.81923C7.41636 1.92813 4.48349 1.15701 2.1084 2.80942C0.839891 3.69071 0.057192 5.18706 0.00321271 6.74767C-0.113742 10.3095 2.97207 13.1645 7.69526 17.5251L7.79422 17.6169Z"/>
</mask>
<path d="M10.2143 17.6261L8.86149 16.153L8.85508 16.1589L10.2143 17.6261ZM7.79422 17.6169L9.16394 16.1595L9.15439 16.1506L7.79422 17.6169ZM7.69526 17.5251L9.05543 16.0588L9.05193 16.0556L7.69526 17.5251ZM0.00321271 6.74767L-1.9956 6.67854L-1.99571 6.68204L0.00321271 6.74767ZM2.1084 2.80942L3.24952 4.45193L3.25062 4.45117L2.1084 2.80942ZM8.99975 3.81923L7.4663 5.10317C7.8463 5.55702 8.40782 5.81923 8.99975 5.81923C9.59168 5.81923 10.1532 5.55702 10.5332 5.10317L8.99975 3.81923ZM15.8911 2.80942L14.7446 4.44821L14.75 4.45193L15.8911 2.80942ZM17.9963 6.74767L15.9975 6.81681L15.9975 6.81835L17.9963 6.74767ZM10.3586 17.4931L8.99884 16.0264L8.99884 16.0264L10.3586 17.4931ZM10.3043 17.5434L11.6571 19.0165L11.664 19.0101L10.3043 17.5434ZM8.85508 16.1589C8.93975 16.0805 9.07935 16.08 9.16392 16.1595L6.42452 19.0743C7.87656 20.4389 10.1214 20.4385 11.5735 19.0932L8.85508 16.1589ZM9.15439 16.1506L9.05543 16.0588L6.33509 18.9914L6.43405 19.0832L9.15439 16.1506ZM9.05193 16.0556C6.64915 13.8373 4.83159 12.1504 3.60308 10.5965C2.40417 9.08005 1.96542 7.93156 2.00214 6.81331L-1.99571 6.68204C-2.07595 9.12566 -1.03027 11.1856 0.465281 13.0773C1.93124 14.9315 4.01818 16.8523 6.33858 18.9946L9.05193 16.0556ZM2.00202 6.81681C2.0353 5.85448 2.52482 4.95542 3.24952 4.45193L0.967283 1.16691C-0.845035 2.426 -1.92092 4.51965 -1.99559 6.67854L2.00202 6.81681ZM3.25062 4.45117C4.64159 3.48344 6.43736 3.87428 7.4663 5.10317L10.5332 2.53529C8.39537 -0.0180079 4.32539 -1.16942 0.966191 1.16767L3.25062 4.45117ZM10.5332 5.10317C11.5664 3.86923 13.3599 3.47943 14.7446 4.4482L17.0376 1.17064C13.6722 -1.18377 9.59992 -0.012964 7.4663 2.53529L10.5332 5.10317ZM14.75 4.45193C15.4747 4.95542 15.9642 5.85448 15.9975 6.81681L19.9951 6.67854C19.9204 4.51965 18.8445 2.426 17.0322 1.16691L14.75 4.45193ZM15.9975 6.81835C16.0368 7.92887 15.6037 9.0707 14.4132 10.5818C13.193 12.1307 11.3868 13.8126 8.99884 16.0264L11.7183 18.9597C14.023 16.8231 16.0984 14.9064 17.5552 13.0572C19.0418 11.1703 20.0812 9.11467 19.995 6.677L15.9975 6.81835ZM8.99884 16.0264L8.94451 16.0768L11.664 19.0101L11.7183 18.9597L8.99884 16.0264ZM8.95147 16.0704L8.8615 16.153L11.5671 19.0991L11.657 19.0165L8.95147 16.0704Z" fill="#5D4CB6" mask="url(#path-1-inside-1)"/>
<circle cx="17" cy="5" r="4.5" fill="#EF2020" stroke="white"/>
</svg>
