<svg width="21" height="19" viewBox="0 0 21 19" fill="none" xmlns="http://www.w3.org/2000/svg">
<path d="M14.2222 11.4274V8.2C14.2222 5.3047 12.28 2.8657 9.64889 2.1322C9.38844 1.468 8.752 1 8 1C7.248 1 6.61156 1.468 6.35111 2.1322C3.72 2.8666 1.77778 5.3047 1.77778 8.2V11.4274L0.260445 12.9637C0.177741 13.0471 0.112152 13.1463 0.0674537 13.2555C0.0227557 13.3647 -0.000168399 13.4818 9.31265e-07 13.6V15.4C9.31265e-07 15.6387 0.0936514 15.8676 0.26035 16.0364C0.427049 16.2052 0.653142 16.3 0.88889 16.3H15.1111C15.3469 16.3 15.573 16.2052 15.7397 16.0364C15.9063 15.8676 16 15.6387 16 15.4V13.6C16.0002 13.4818 15.9772 13.3647 15.9325 13.2555C15.8878 13.1463 15.8223 13.0471 15.7396 12.9637L14.2222 11.4274ZM14.2222 14.5H1.77778V13.9726L3.29511 12.4363C3.37782 12.3529 3.44341 12.2537 3.4881 12.1445C3.5328 12.0353 3.55573 11.9182 3.55556 11.8V8.2C3.55556 5.7187 5.54933 3.7 8 3.7C10.4507 3.7 12.4444 5.7187 12.4444 8.2V11.8C12.4444 12.0394 12.5378 12.268 12.7049 12.4363L14.2222 13.9726V14.5ZM8 19C8.55049 19.0007 9.08752 18.8277 9.53644 18.5051C9.98535 18.1826 10.3239 17.7264 10.5049 17.2H5.49511C5.67614 17.7264 6.01465 18.1826 6.46356 18.5051C6.91248 18.8277 7.44951 19.0007 8 19V19Z" fill="#5D4CB6"/>
<circle cx="16" cy="5" r="4.5" fill="#EF2020" stroke="white"/>
</svg>
