<svg width="36" height="33" viewBox="0 0 36 33" fill="none" xmlns="http://www.w3.org/2000/svg">
<path d="M17.9483 32.9825C13.7986 32.9825 9.64894 32.9494 5.50791 32.999C3.19965 33.0321 1.44468 32.2298 0.467782 30.2115C-0.517765 28.1602 0.139267 26.3074 1.64352 24.7358C4.16791 22.0973 7.45307 20.6332 10.9025 19.4752C13.5738 18.5819 13.7122 18.1931 12.0177 16.1253C9.50197 13.0566 8.68068 9.6322 9.82184 5.86869C11.0235 1.91494 14.7496 -0.417605 18.9165 0.0621388C23.3429 0.574968 26.2909 3.6354 26.6367 8.0689C26.8874 11.2617 25.824 14.0243 23.706 16.4561C22.3919 17.9698 22.6599 18.5323 24.5186 19.3181C27.19 20.443 29.8267 21.6754 32.3511 23.0567C33.4058 23.6357 34.2617 24.6449 35.0052 25.6043C36.2068 27.1428 36.3279 28.8716 35.325 30.5755C34.3654 32.205 32.8785 32.9825 30.916 32.9825C26.5934 32.9659 22.2709 32.9742 17.9483 32.9825Z" fill="#1A4368"/>
</svg>
